<?xml version="1.0" encoding="UTF-8"?>
<!DOCTYPE svg PUBLIC "-//W3C//DTD SVG 1.1//EN" "http://www.w3.org/Graphics/SVG/1.1/DTD/svg11.dtd">
<!-- Creator: CorelDRAW X7 -->
<svg xmlns="http://www.w3.org/2000/svg" xml:space="preserve" width="11025px" height="2216px" version="1.1" style="shape-rendering:geometricPrecision; text-rendering:geometricPrecision; image-rendering:optimizeQuality; fill-rule:evenodd; clip-rule:evenodd"
viewBox="0 0 11025 2216"
 xmlns:xlink="http://www.w3.org/1999/xlink">
 <defs>
  <style type="text/css">
   <![CDATA[
    .fil0 {fill:url(#id0)}
   ]]>
  </style>
  <linearGradient id="id0" gradientUnits="userSpaceOnUse" x1="3746.88" y1="1975" x2="3746.88" y2="328.128">
   <stop offset="0" style="stop-opacity:1; stop-color:#B6923A"/>
   <stop offset="0.211765" style="stop-opacity:1; stop-color:#F8E998"/>
   <stop offset="0.490196" style="stop-opacity:1; stop-color:#BA8132"/>
   <stop offset="0.811765" style="stop-opacity:1; stop-color:#F7E895"/>
   <stop offset="1" style="stop-opacity:1; stop-color:#9F6825"/>
  </linearGradient>
 </defs>
 <g id="Слой_x0020_1">
  <metadata id="CorelCorpID_0Corel-Layer"/>
  <path class="fil0" d="M3294 969c0,-103 -38,-188 -103,-253 -69,-66 -166,-107 -285,-107l-465 0 0 988 156 0 0 -275 331 0 166 275 172 0 -188 -306c63,-25 113,-63 150,-110 44,-59 66,-134 66,-212zm226 -360l0 988 782 0 0 -141 -625 0 0 -306 540 0 0 -141 -540 0 0 -256 603 0 0 -144 -760 0zm-3379 -612l-25 0 6 41c6,53 12,112 15,175l207 0 -203 -216zm-138 256l0 22 28 0c41,0 72,16 100,44 3,0 7,6 10,9 22,25 31,53 34,88l0 1234c-3,38 -19,69 -47,97 -28,28 -59,41 -97,41l-28 0 0 21 456 0 32 0 -3 -21 -29 0c-6,0 -12,0 -18,-4 -32,-3 -60,-15 -82,-40 -28,-28 -40,-60 -40,-97l0 -1209 0 -116 128 0 147 0c87,3 156,34 203,100 50,66 72,153 72,259 0,32 -3,60 -7,85 -12,68 -40,122 -81,162 -12,13 -28,25 -44,35 -21,15 -50,28 -81,37 -31,13 -62,19 -94,22 -28,3 -84,6 -171,6l0 22c28,3 68,31 121,91l316 350c156,175 266,293 319,359 56,63 119,122 187,178 38,31 72,60 110,81 37,22 78,41 118,60 44,15 85,28 119,34 38,6 78,10 122,10l3 0 6 0c50,-4 104,-10 163,-25l0 -22c-16,3 -34,3 -53,3 -85,0 -172,-22 -260,-72 -43,-22 -90,-56 -146,-103 -57,-47 -122,-106 -194,-178 -72,-72 -238,-250 -494,-535 -62,-68 -119,-131 -169,-184 78,0 150,-25 210,-72 22,-19 40,-37 59,-59 19,-22 38,-50 50,-75 38,-69 59,-147 59,-235 0,-122 -40,-218 -121,-293 -79,-72 -182,-110 -313,-110l-222 0 -244 0 -134 0zm1006 669c-15,25 -31,50 -50,72 -18,22 -40,44 -62,62l741 791 25 0 -7 -47c-12,-87 -18,-181 -18,-278l0 -1309c3,-41 18,-79 50,-107 31,-31 65,-47 109,-47l44 0 0 -25 -522 0 0 25 50 0c40,0 78,16 109,47 28,28 44,66 47,110l0 1259 -516 -553zm-184 -197l-337 -359 -129 0 0 115 391 419c47,-47 69,-106 75,-175zm1772 25l303 0c84,0 150,31 187,75 35,38 54,88 54,144 0,56 -19,109 -57,150 -34,40 -93,65 -172,65l-315 0 0 -434zm2369 847l0 -234 425 -754 -169 0 -325 594 -13 0 -318 -594 -179 0 425 757 0 231 154 0zm1809 -988l0 754 -622 -754 -147 0 0 988 153 0 0 -750 616 750 147 0 0 -988 -147 0zm313 988l781 0 0 -141 -625 0 0 -306 540 0 0 -141 -540 0 0 -256 603 0 0 -144 -760 0 1 988zm1774 -566l-409 0 0 128 259 10 0 234c-68,44 -146,75 -246,75 -104,0 -194,-40 -260,-103 -68,-66 -106,-159 -106,-272 0,-106 38,-194 100,-259 72,-69 163,-110 269,-110 125,0 206,35 294,119l96 -103c-112,-109 -228,-156 -390,-156 -153,0 -281,56 -375,147 -94,90 -150,218 -150,362 0,141 50,266 134,353 91,100 222,160 388,160 112,0 200,-28 278,-82l22 72 97 -15 -1 -560zm1022 -62c0,-103 -37,-188 -106,-253 -65,-66 -162,-107 -281,-107l-469 0 0 988 156 0 0 -275 335 0 162 275 175 0 -187 -306c62,-25 109,-63 150,-110 44,-59 65,-134 65,-212zm-700 -219l307 0c84,0 150,31 187,75 35,38 53,88 53,144 0,56 -18,109 -56,150 -34,40 -94,65 -172,65l-319 0 0 -434zm797 353c0,147 60,275 157,369 96,91 228,144 368,144 138,0 263,-50 360,-141 100,-94 162,-225 162,-372 0,-125 -47,-240 -125,-331 -100,-113 -240,-178 -397,-178 -147,0 -278,53 -375,150 -93,94 -150,222 -150,359zm156 0c0,-100 35,-190 97,-259 66,-69 163,-116 272,-116 110,0 203,44 272,119 60,66 94,159 94,256 0,103 -38,197 -103,266 -66,72 -160,109 -263,109 -103,0 -190,-37 -259,-100 -69,-72 -109,-165 -110,-275z"/>
 </g>
</svg>
