<svg width="79" height="18" viewBox="0 0 79 18" fill="none" xmlns="http://www.w3.org/2000/svg">
<path fill-rule="evenodd" clip-rule="evenodd" d="M10.1795 0.987973C8.42258 0.803876 6.65144 1.1656 5.10955 2.02343C3.56766 2.88126 2.33071 4.19308 1.56872 5.77858C0.806738 7.36408 0.557123 9.14543 0.854187 10.8778C1.15125 12.6101 1.98041 14.2084 3.2277 15.453C4.47499 16.6975 6.07917 17.5273 7.81976 17.8281C9.56034 18.129 11.3519 17.8862 12.9481 17.1331C14.5444 16.3801 15.8669 15.1537 16.7341 13.6226C17.6012 12.0915 17.9703 10.3308 17.7907 8.58252C17.593 6.63921 16.7282 4.82302 15.3419 3.43975C13.9556 2.05648 12.1325 1.19062 10.1795 0.987973ZM9.90243 13.949C8.95749 14.0751 7.99659 13.9035 7.15476 13.4583C6.31293 13.0131 5.6325 12.3167 5.2091 11.4669C4.78571 10.6172 4.64062 9.65686 4.79425 8.72087C4.94787 7.78488 5.39247 6.9203 6.06558 6.24864C6.73868 5.57699 7.60644 5.13202 8.54689 4.97628C9.48735 4.82054 10.4532 4.96185 11.3088 5.38036C12.1643 5.79887 12.8665 6.47353 13.3167 7.30953C13.7669 8.14553 13.9424 9.10084 13.8186 10.0412C13.6887 11.0303 13.2346 11.9492 12.5266 12.6556C11.8187 13.3621 10.8963 13.8166 9.90243 13.949ZM22.3644 1.32449C22.0678 1.3252 21.7751 1.39167 21.5076 1.51906C21.2401 1.64646 21.0045 1.83158 20.818 2.06095C20.6314 2.29032 20.4987 2.55818 20.4293 2.84502C20.3599 3.13186 20.3557 3.43048 20.417 3.71915C20.6046 4.65433 21.4827 5.29331 22.4393 5.29331H27.9907L19.3515 16.6659C19.2876 16.7498 19.2485 16.8498 19.2386 16.9546C19.2286 17.0595 19.2482 17.165 19.2951 17.2594C19.3421 17.3538 19.4145 17.4333 19.5043 17.489C19.5942 17.5447 19.6978 17.5744 19.8037 17.5749H33.355C34.311 17.5749 35.1897 16.936 35.3774 16.0007C35.4386 15.7121 35.4345 15.4135 35.3652 15.1267C35.2958 14.8399 35.1631 14.572 34.9767 14.3426C34.7903 14.1133 34.5548 13.9281 34.2873 13.8006C34.0199 13.6731 33.7273 13.6066 33.4307 13.6057H26.6669L35.2994 2.242C35.3639 2.15723 35.4034 2.05625 35.4134 1.95039C35.4235 1.84454 35.4037 1.73799 35.3562 1.64271C35.3088 1.54743 35.2356 1.46718 35.1449 1.41097C35.0541 1.35477 34.9494 1.32482 34.8425 1.32449H22.3644ZM76.5146 1.37027C76.066 1.47639 75.6672 1.73164 75.3842 2.09382C75.1012 2.45599 74.9509 2.9034 74.9582 3.36207V9.97003L64.1941 1.4493C64.1097 1.38265 64.0081 1.34105 63.901 1.3293C63.7938 1.31755 63.6856 1.33612 63.5886 1.38287C63.4916 1.42962 63.4098 1.50266 63.3527 1.59358C63.2956 1.6845 63.2655 1.78961 63.2658 1.89681V15.5408C63.2585 15.9995 63.4087 16.4469 63.6918 16.8091C63.9748 17.1713 64.3736 17.4265 64.8223 17.5326C65.1136 17.5964 65.4156 17.5943 65.706 17.5264C65.9964 17.4586 66.2678 17.3268 66.5002 17.1407C66.7326 16.9546 66.92 16.7191 67.0486 16.4513C67.1772 16.1836 67.2438 15.8905 67.2433 15.5938V8.92867L78.0075 17.4496C78.0919 17.5162 78.1935 17.5577 78.3006 17.5695C78.4076 17.5812 78.5159 17.5627 78.6128 17.5159C78.7098 17.4692 78.7915 17.3962 78.8486 17.3053C78.9057 17.2144 78.9358 17.1094 78.9355 17.0022V3.30842C78.9359 3.01176 78.8692 2.71881 78.7406 2.45117C78.6119 2.18353 78.4245 1.94803 78.1922 1.76203C77.9599 1.57602 77.6885 1.44426 77.3982 1.37646C77.1078 1.30866 76.8059 1.30654 76.5146 1.37027ZM48.488 4.91343C53.0409 4.91343 56.4428 7.3068 56.4428 9.44766C56.4428 11.5885 53.0409 13.9819 48.488 13.9819C43.9351 13.9819 40.5332 11.5885 40.5332 9.44766C40.5332 7.3068 43.9351 4.91343 48.488 4.91343ZM48.488 0.944764C41.8979 0.944764 36.5557 4.75167 36.5557 9.44766C36.5557 14.1437 41.8979 17.9506 48.488 17.9506C55.0781 17.9506 60.4202 14.1437 60.4202 9.44766C60.4202 4.75167 55.078 0.944764 48.488 0.944764Z" fill="#0069FF"/>
</svg>
