<svg width="32" height="31" viewBox="0 0 32 31" fill="none" xmlns="http://www.w3.org/2000/svg">
<rect x="0.734375" y="0.204834" width="30.4685" height="30.4685" rx="5" fill="url(#paint0_linear_391_913)"/>
<path d="M28.9521 17.9539C28.9521 18.9011 28.6143 19.6881 27.9248 20.3151C27.2352 20.9421 26.4239 21.2623 25.4236 21.2623H20.4077V9.69629H25.0585C26.0185 9.69629 26.8293 10.0165 27.4919 10.6168C28.1682 11.2304 28.4926 11.9908 28.4926 12.8979C28.4926 13.9118 28.0868 14.6855 27.3029 15.2592C28.3302 15.7928 28.9521 16.7533 28.9521 17.9539ZM22.3409 11.4839V14.5255H25.0718C25.9238 14.5255 26.5726 13.8584 26.5726 13.0047C26.5726 12.1509 25.9238 11.4839 25.0718 11.4839H22.3409ZM25.4369 19.4747C26.3292 19.4747 27.0325 18.7676 27.0325 17.8605C27.0325 16.9534 26.3292 16.2464 25.4369 16.2464H22.3409V19.488H25.4369V19.4747Z" fill="white"/>
<path d="M6.12432 21.1902L2.98486 9.61674H5.04425L7.45641 18.5058L10.0416 9.61597L11.9613 9.61674L14.5555 18.553L16.9785 9.61892L19.0379 9.61597L15.8971 21.1882L13.51 21.1857L11.0022 12.5428L8.49209 21.188L6.12432 21.1902Z" fill="white"/>
<defs>
<linearGradient id="paint0_linear_391_913" x1="0.734375" y1="30.6733" x2="31.2031" y2="0.204834" gradientUnits="userSpaceOnUse">
<stop stop-color="#B52181"/>
<stop offset="1" stop-color="#50327C"/>
</linearGradient>
</defs>
</svg>
