<svg width="71" height="29" viewBox="0 0 71 29" fill="none" xmlns="http://www.w3.org/2000/svg">
<g id="LOGO">
<g id="&#60;&#208;&#147;&#209;&#128;&#209;&#131;&#208;&#191;&#208;&#191;&#208;&#176;&#62;">
<path id="&#60;&#208;&#161;&#208;&#190;&#209;&#129;&#209;&#130;&#208;&#176;&#208;&#178;&#208;&#189;&#208;&#190;&#208;&#185; &#208;&#186;&#208;&#190;&#208;&#189;&#209;&#130;&#209;&#131;&#209;&#128;&#62;" d="M7.86081 15.9045L4.10862 24.8993L1.21738 24.9679L5.34477 15.3464C3.27358 14.3554 1.86456 12.5036 1.78216 9.02771C1.66666 4.15492 4.69499 1.64536 8.36584 1.55835L12.1016 1.4698L12.6522 24.6968L10.1508 24.7561L9.93986 15.8552L7.86081 15.9045ZM9.65033 3.64064L8.31838 3.67222C6.30433 3.71996 4.38676 5.09803 4.4784 8.9638C4.56695 12.6995 6.38216 13.8591 8.55862 13.8076L9.89058 13.776L9.65033 3.64064Z" fill="#FF0000"/>
<path id="&#60;&#208;&#161;&#208;&#190;&#209;&#129;&#209;&#130;&#208;&#176;&#208;&#178;&#208;&#189;&#208;&#190;&#208;&#185; &#208;&#186;&#208;&#190;&#208;&#189;&#209;&#130;&#209;&#131;&#209;&#128;&#62;_2" d="M24.3152 8.03868L24.7033 24.4114L22.2019 24.4707L22.0279 17.129L18.2596 17.2183L18.4336 24.56L15.8998 24.62L15.5117 8.24736L18.0455 8.1873L18.2103 15.1391L21.9786 15.0498L21.8138 8.09798L24.3152 8.03868ZM37.8061 27.3187L35.5321 27.3726L35.4559 24.1565L28.4391 24.3228L28.5153 27.5389L26.2413 27.5928L26.1158 22.2977L27.1229 22.2738C28.5348 18.7624 28.5771 13.6908 28.4739 9.33776L28.4408 7.94089L36.0424 7.7607L36.3812 22.0543L37.6806 22.0235L37.8061 27.3187ZM33.5895 9.86665L30.7633 9.93364L30.7702 10.226C30.8518 13.6694 30.8088 18.7085 29.5268 22.2168L33.8798 22.1136L33.5895 9.86665ZM44.7196 24.1644C41.3412 24.2444 39.1982 21.5975 39.0789 16.5624C38.9541 11.2997 40.3251 7.43172 43.8011 7.34933C46.5298 7.28465 48.365 9.28885 48.4967 14.8439L48.5298 16.2408L41.7078 16.4025C41.7956 20.1057 42.8813 22.0303 44.8953 21.9826C46.3247 21.9487 47.4464 21.2721 48.0852 20.8018L48.7163 22.737C47.5833 23.6501 46.1747 24.1531 44.7196 24.1644ZM41.691 14.3226L45.8816 14.2232C45.8154 11.4295 45.312 9.39375 43.8503 9.42839C42.291 9.46536 41.7842 11.3951 41.691 14.3226ZM53.6493 15.567L53.8426 23.7207L51.3087 23.7807L50.9206 7.40804L53.4545 7.34797L53.6339 14.9171L57.3851 7.2548L59.9515 7.19397L56.0734 14.9893L60.9243 23.5528L58.1631 23.6182L53.6493 15.567ZM61.0551 15.3589C60.9334 10.2261 62.8374 6.8981 66.6707 6.80723C68.1323 6.77259 68.9863 7.14242 69.7117 7.58023L69.4114 9.9926C68.7153 9.42399 67.7277 8.89492 66.6882 8.91956C64.869 8.96268 63.6181 11.04 63.7159 15.1657C63.8129 19.2588 64.8429 21.5746 66.8895 21.5261C67.9024 21.5157 68.8764 21.1341 69.6268 20.4536L70.2562 22.324C69.3356 23.174 68.1274 23.6439 66.8745 23.6392C63.3661 23.7224 61.1875 20.9464 61.0551 15.3589Z" fill="white"/>
</g>
</g>
</svg>
